<svg xmlns="http://www.w3.org/2000/svg" viewBox="0 0 347.22 347.22"><defs><style>.cls-1{fill:#002c4b;}.cls-2{fill:#bb9000;}.cls-3,.cls-4,.cls-5,.cls-6,.cls-7,.cls-8{fill:#fff;stroke-miterlimit:10;}.cls-3{stroke:#231f20;}.cls-4,.cls-8{stroke:#fff;}.cls-5{stroke:#fcfcfc;}.cls-6,.cls-7{stroke:#000;}.cls-6{stroke-width:0.5px;}.cls-7{stroke-width:0.25px;}.cls-8{font-size:37.72px;font-family:GeometricSlab703BT-Medium, GeoSlab703 Md BT;font-weight:500;}</style></defs><g id="Layer_2" data-name="Layer 2"><g id="Layer_1-2" data-name="Layer 1"><circle class="cls-1" cx="173.61" cy="173.61" r="173.61"/><ellipse class="cls-2" cx="177.36" cy="53.75" rx="17.77" ry="23.2"/><polyline class="cls-2" points="183.32 69.72 183.32 276.07 171.16 276.07 171.16 69.72"/><path class="cls-2" d="M193.17,294c0,10-7.09,18.19-15.84,18.19s-15.85-8.15-15.85-18.19,7.38-20.33,16.13-20.33S193.17,284,193.17,294Z"/><path class="cls-2" d="M252.7,156.94,263,148.23a15.63,15.63,0,0,0,5.43-10.89l1.89-26.83C269,106.84,278.08,99,278.08,99c4.86-1.39,3.3-9.34,2.54-12.26a12.48,12.48,0,0,0-.59-1.82c-3.42-7.8-15-8.33-15-8.33-.56-.06-1.1-.1-1.63-.13-13.15-.62-19.95,16.43-10.58,26.32l.51.53a16,16,0,0,1,4.61,11.26V133.2a15.6,15.6,0,0,1-6.86,13.08l-9.68,6.32a15.61,15.61,0,0,0-6.85,13.08v2.18l-.55,85A16,16,0,0,1,230.3,263c-3.21,3.83,26,4.48,23.53,1.25-.51-.67-1-1.28-1.47-1.84a15.7,15.7,0,0,1-3.56-9.75l-1.57-83.4A15.76,15.76,0,0,1,252.7,156.94Z"/><path class="cls-2" d="M255.76,266.21c0,9.45-6.79,17.11-15.18,17.11s-15.18-7.66-15.18-17.11,7.06-19.12,15.45-19.12S255.76,256.76,255.76,266.21Z"/><path class="cls-2" d="M281.47,94.77c0,12.16-8,22-17.91,22s-17.91-9.85-17.91-22S254,70.18,263.88,70.18,281.47,82.62,281.47,94.77Z"/><path class="cls-2" d="M218.52,141.8l11-12.62a16.51,16.51,0,0,0,4-10l1.85-35.72c.18-3.34-11.77-10.32-11.23,2.66v28.58A16.39,16.39,0,0,1,218.78,127l-10.31,9.16a16.42,16.42,0,0,0-5.38,12.28v5.72l-.51,106.55a16.8,16.8,0,0,1-2.62,8.95c-3,4.62-7.29,12.47-6.38,17.77,3.41,20,22.95,11.16,24,10.9,2.48-.6,6.09-6,7.29-9.27,1.06-2.93-.17-5.62.09-6.74.53-2.23-2.24-6.08-4.48-10-.7-1.23-1.36-2.32-1.94-3.24a16.61,16.61,0,0,1-2.57-8.72L214.5,152.93A16.53,16.53,0,0,1,218.52,141.8Z"/><path class="cls-2" d="M225.15,285.09c0,10-7.09,18.19-15.85,18.19s-15.84-8.15-15.84-18.19,7.37-20.33,16.12-20.33S225.15,275,225.15,285.09Z"/><path class="cls-2" d="M245.65,62.48c0,11.37-7.1,20.59-15.85,20.59S214,73.85,214,62.48s7.37-23,16.12-23S245.65,51.12,245.65,62.48Z"/><path class="cls-2" d="M138.68,149.67l-17.92-21.25-2.25-44.89c0-4.79-6.4-9.59-6.4-9.59-5.12-2.06-1.92-16.11-1.92-16.11,2.56-10.28,13.13-11,13.13-11,11.84-1.71,15.36,8.91,15.36,8.91,3.85,15.76-9.28,28.1-9.28,28.1v41.8l20,18.47v13L150,267.32s9.82,13.43,8.54,21.24c-3.25,19.7-21.84,11-22.84,10.74-2.36-.58-5.79-5.89-6.94-9.14-1-2.88.16-5.54-.09-6.64-.49-2.2,2.14-6,4.27-9.89a59.74,59.74,0,0,1,4.22-6.77Z"/><path class="cls-2" d="M159.59,282.1c0,10-7.09,18.19-15.85,18.19s-15.84-8.15-15.84-18.19,7.37-20.34,16.12-20.34S159.59,272.05,159.59,282.1Z"/><path class="cls-2" d="M143.74,66.94c0,11.16-8.35,20.21-18.66,20.21s-18.66-9.05-18.66-20.21,8.69-22.58,19-22.58S143.74,55.78,143.74,66.94Z"/><path class="cls-2" d="M96.89,155.44,85.3,145.69a13.84,13.84,0,0,1-4.79-9.61L78.8,111.77c0-2-2.39-4.07-4.94-8.24S68,86,68.34,84.54a11.2,11.2,0,0,1,.52-1.61C72.22,75,83.92,74.5,83.92,74.5c5.61-.58,9.62.53,12.4,2A13.26,13.26,0,0,1,102.76,86c1.8,10.35-1.55,15.11-5.13,17.29A13.82,13.82,0,0,0,91,115.09v17.08a13.74,13.74,0,0,0,6,11.53l11.29,7.38a13.75,13.75,0,0,1,6.05,11.54v3.2l.56,85.79a13.91,13.91,0,0,0,3.3,8.94c3.26,3.81,7.65,9.89,6.69,14.05-3.79,16.3-25.47,9.1-26.64,8.89-2.76-.49-6.75-4.88-8.09-7.57-1.18-2.38.19-4.59-.1-5.5-.58-1.82,2.49-5,5-8.19.61-.79,1.2-1.51,1.73-2.14a14.08,14.08,0,0,0,3.3-8.84l1.59-84.91A13.9,13.9,0,0,0,96.89,155.44Z"/><path class="cls-2" d="M105.45,92.71a19.85,19.85,0,1,1-39.7,0C65.75,81.58,75,70.18,86,70.18S105.45,81.58,105.45,92.71Z"/><path class="cls-2" d="M125.08,268.65c0,10.83-7.94,19.61-17.74,19.61S89.6,279.48,89.6,268.65s8.26-21.93,18.05-21.93S125.08,257.81,125.08,268.65Z"/><path class="cls-3" d="M78.66,169.3l15.21.67,9.67-12.48,7.49-.19L149,217.38l56.15-99h6.24l34.31,62.89h3.64l10.4-11.74,15.34-.46v6.57l-14.18.46a.23.23,0,0,0-.19.1l-10.07,14.34h-7.8L209.29,128.2,150,228.87h-4.83L106.35,163.4,95.36,177l-16.7.08Z"/><ellipse class="cls-4" cx="303.91" cy="173.61" rx="28.85" ry="26.05"/><ellipse class="cls-1" cx="303.91" cy="172.5" rx="19.95" ry="18.01"/><ellipse class="cls-4" cx="49.14" cy="173.61" rx="28.85" ry="26.05"/><ellipse class="cls-1" cx="49.14" cy="172.5" rx="19.95" ry="18.01"/><path class="cls-5" d="M38.8,178.53H60.44a.4.4,0,0,0,.38-.42v-15a2.1,2.1,0,0,0-2-2.2H50.41a.43.43,0,0,0,0,.86h8.45a1.28,1.28,0,0,1,1.2,1.34v14.57H39.18V171a.38.38,0,1,0-.76,0v7.14A.4.4,0,0,0,38.8,178.53Z"/><path class="cls-4" d="M38.42,170.46c-.06-2.89,0-7.35,0-7.35a2.2,2.2,0,0,1,2.19-2.2h9.47a.43.43,0,1,1,0,.86H40.61a1.34,1.34,0,0,0-1.34,1.34l-.15,7.82s.06.71-.41.31C38.6,171.15,38.43,171.08,38.42,170.46Z"/><path class="cls-6" d="M61.11,179.23h-23a1.3,1.3,0,0,0,0,2.6h23a1.3,1.3,0,0,0,0-2.6Zm-9.56,1.69H47.68a.38.38,0,0,1-.38-.39.39.39,0,0,1,.38-.39h3.87a.4.4,0,0,1,.39.39A.39.39,0,0,1,51.55,180.92Z"/><path class="cls-6" d="M55.57,164.81H45a1.47,1.47,0,0,0-1.46,1.49v6.54A1.47,1.47,0,0,0,45,174.33H55.57A1.48,1.48,0,0,0,57,172.84V166.3A1.48,1.48,0,0,0,55.57,164.81Zm-6.93,5.91a.39.39,0,0,1,.06.55.36.36,0,0,1-.3.15.38.38,0,0,1-.24-.09l-2.23-1.83a.39.39,0,0,1,0-.6l2.23-1.83a.38.38,0,1,1,.48.6l-1.85,1.53Zm1.51.92-.24,1a.4.4,0,0,1-.38.29h-.09a.4.4,0,0,1-.28-.48l.24-1a.39.39,0,1,1,.75.2Zm1.23-4.9-.88,3.48a.38.38,0,0,1-.37.29H50a.4.4,0,0,1-.28-.48l.88-3.48a.38.38,0,0,1,.46-.28A.39.39,0,0,1,51.38,166.74Zm3.23,3.16-2.23,1.83a.37.37,0,0,1-.24.08.39.39,0,0,1-.24-.69l1.86-1.53-1.86-1.52a.4.4,0,0,1-.06-.55.38.38,0,0,1,.54-.06l2.23,1.83a.39.39,0,0,1,.14.3A.41.41,0,0,1,54.61,169.9Z"/><path class="cls-7" d="M297.81,182.61a1,1,0,0,0,.92.92v1.18a.18.18,0,0,0,.19.16.17.17,0,0,0,.18-.16v-1.18a1,1,0,0,0,.92-.92v-2.48h-2.21Z"/><path class="cls-7" d="M299.1,159.81v-1.18a.17.17,0,0,0-.18-.15.18.18,0,0,0-.19.15v1.18a1,1,0,0,0-.92.93v2.47H300v-2.47A1,1,0,0,0,299.1,159.81Z"/><path class="cls-7" d="M304.42,159.81v-1.18a.18.18,0,0,0-.36,0v1.18a1,1,0,0,0-.92.93v2.47h2.2v-2.47A1,1,0,0,0,304.42,159.81Z"/><path class="cls-7" d="M303.14,182.61a1,1,0,0,0,.92.92v1.18a.18.18,0,0,0,.36,0v-1.18a1,1,0,0,0,.92-.92v-2.48h-2.2Z"/><path class="cls-7" d="M309.75,159.81v-1.18a.18.18,0,0,0-.19-.15.17.17,0,0,0-.18.15v1.18a1,1,0,0,0-.92.93v2.47h2.21v-2.47A1,1,0,0,0,309.75,159.81Z"/><path class="cls-7" d="M308.46,182.61a1,1,0,0,0,.92.92v1.18a.17.17,0,0,0,.18.16.18.18,0,0,0,.19-.16v-1.18a1,1,0,0,0,.92-.92v-2.48h-2.21Z"/><path class="cls-7" d="M290.33,167H289a.16.16,0,1,0,0,.31h1.38a1.07,1.07,0,0,0,1.09.78h2.9v-1.88h-2.9A1.07,1.07,0,0,0,290.33,167Z"/><path class="cls-7" d="M318.15,167.29h1.38a.16.16,0,1,0,0-.31h-1.38a1.07,1.07,0,0,0-1.09-.79h-2.9v1.88h2.9A1.07,1.07,0,0,0,318.15,167.29Z"/><path class="cls-7" d="M290.33,171.52H289a.16.16,0,1,0,0,.31h1.38a1.07,1.07,0,0,0,1.09.78h2.9v-1.88h-2.9A1.07,1.07,0,0,0,290.33,171.52Z"/><path class="cls-7" d="M290.33,176.06H289a.16.16,0,1,0,0,.31h1.38a1.07,1.07,0,0,0,1.09.78h2.9v-1.88h-2.9A1.07,1.07,0,0,0,290.33,176.06Z"/><path class="cls-7" d="M319.53,171.52h-1.38a1.07,1.07,0,0,0-1.09-.79h-2.9v1.88h2.9a1.07,1.07,0,0,0,1.09-.78h1.38a.16.16,0,1,0,0-.31Z"/><path class="cls-7" d="M319.53,176.06h-1.38a1.07,1.07,0,0,0-1.09-.79h-2.9v1.88h2.9a1.07,1.07,0,0,0,1.09-.78h1.38a.16.16,0,1,0,0-.31Z"/><path class="cls-7" d="M311.66,164.13H296.82a1.32,1.32,0,0,0-1.42,1.21V178a1.32,1.32,0,0,0,1.42,1.21h14.84a1.32,1.32,0,0,0,1.42-1.21V165.34A1.32,1.32,0,0,0,311.66,164.13Zm-1.7,9.81a.44.44,0,0,1-.48.41H299a.44.44,0,0,1-.48-.41h0a.45.45,0,0,1,.48-.41h10.48a.45.45,0,0,1,.48.41Zm-.48-1.86H299a.44.44,0,0,1-.48-.41.45.45,0,0,1,.48-.41h10.48a.45.45,0,0,1,.48.41A.44.44,0,0,1,309.48,172.08Zm0-2.27H299a.44.44,0,0,1-.48-.41A.45.45,0,0,1,299,169h10.48a.45.45,0,0,1,.48.41A.44.44,0,0,1,309.48,169.81Z"/><text class="cls-8" transform="translate(58.03 254.57) scale(0.98 1)">Embeddronics</text></g></g></svg>